<?xml version="1.0" standalone="no"?><!DOCTYPE svg PUBLIC "-//W3C//DTD SVG 1.1//EN" "http://www.w3.org/Graphics/SVG/1.1/DTD/svg11.dtd"><svg t="1544193762174" class="icon" style="" viewBox="0 0 1024 1024" version="1.1" xmlns="http://www.w3.org/2000/svg" p-id="2833" xmlns:xlink="http://www.w3.org/1999/xlink" width="200" height="200"><defs><style type="text/css"></style></defs><path d="M704.512 982.016H319.488c-16.384 0-29.184-13.312-29.184-29.184V258.048c0-16.384 13.312-29.184 29.184-29.184 16.384 0 29.184 13.312 29.184 29.184v665.088h326.656V258.048c0-16.384 13.312-29.184 29.184-29.184 16.384 0 29.184 13.312 29.184 29.184v694.784c0.512 15.872-12.8 29.184-29.184 29.184z" fill="#e6e6e6" p-id="2834"></path><path d="M833.024 406.528c-7.168 0-14.336-2.56-20.48-8.192L512 112.128 211.456 398.336c-11.776 11.264-30.208 10.752-41.472-1.024-11.264-11.776-10.752-30.208 1.024-41.472L491.52 50.176c11.264-10.752 29.184-10.752 40.448 0l321.024 305.664c11.776 11.264 12.288 29.696 1.024 41.472a28.3648 28.3648 0 0 1-20.992 9.216z" fill="#e6e6e6" p-id="2835"></path><path d="M512 556.032c-57.344 0-104.448-46.592-104.448-104.448s46.592-104.448 104.448-104.448 104.448 46.592 104.448 104.448-47.104 104.448-104.448 104.448z m0-149.504c-25.088 0-45.568 20.48-45.568 45.568s20.48 45.568 45.568 45.568 45.568-20.48 45.568-45.568c0-25.6-20.48-45.568-45.568-45.568zM582.656 982.016H441.344c-16.384 0-29.184-13.312-29.184-29.184v-192.512c0-16.384 13.312-29.184 29.184-29.184h141.312c16.384 0 29.184 13.312 29.184 29.184v192.512c0 15.872-12.8 29.184-29.184 29.184z m-112.128-58.88H552.96v-133.632H470.528v133.632zM994.816 600.064h-289.792c-16.384 0-29.184-13.312-29.184-29.184V467.968c0-16.384 13.312-29.184 29.184-29.184h289.792c16.384 0 29.184 13.312 29.184 29.184v102.912c0 16.384-13.312 29.184-29.184 29.184z m-260.608-58.368h230.912v-44.032h-230.912v44.032z" fill="#e6e6e6" p-id="2836"></path><path d="M918.528 982.016h-214.016c-16.384 0-29.184-13.312-29.184-29.184v-380.416c0-16.384 13.312-29.184 29.184-29.184h214.016c16.384 0 29.184 13.312 29.184 29.184v380.416c0.512 15.872-12.8 29.184-29.184 29.184z m-184.32-58.88h155.136v-322.048h-155.136v322.048zM318.976 600.064H29.184c-16.384 0-29.184-13.312-29.184-29.184V467.968c0-16.384 13.312-29.184 29.184-29.184h289.792c16.384 0 29.184 13.312 29.184 29.184v102.912c0 16.384-12.8 29.184-29.184 29.184z m-260.096-58.368h230.912v-44.032H58.88v44.032z" fill="#e6e6e6" p-id="2837"></path><path d="M319.488 982.016H105.472c-16.384 0-29.184-13.312-29.184-29.184v-380.416c0-16.384 13.312-29.184 29.184-29.184h214.016c16.384 0 29.184 13.312 29.184 29.184v380.416c0 15.872-13.312 29.184-29.184 29.184z m-184.832-58.88h155.136v-322.048H134.656v322.048zM811.52 752.64c-13.312 0-24.576-10.752-24.576-24.576v-51.2c0-13.312 10.752-24.576 24.576-24.576 13.312 0 24.576 10.752 24.576 24.576v51.2c0 13.312-10.752 24.576-24.576 24.576z" fill="#e6e6e6" p-id="2838"></path><path d="M212.48 752.64c-13.312 0-24.576-10.752-24.576-24.576v-51.2c0-13.312 10.752-24.576 24.576-24.576s24.576 10.752 24.576 24.576v51.2c0 13.312-11.264 24.576-24.576 24.576zM811.52 881.152c-13.312 0-24.576-10.752-24.576-24.576v-51.2c0-13.312 10.752-24.576 24.576-24.576 13.312 0 24.576 10.752 24.576 24.576v51.2c0 13.312-10.752 24.576-24.576 24.576zM212.48 881.152c-13.312 0-24.576-10.752-24.576-24.576v-51.2c0-13.312 10.752-24.576 24.576-24.576s24.576 10.752 24.576 24.576v51.2c0 13.312-11.264 24.576-24.576 24.576z" fill="#e6e6e6" p-id="2839"></path></svg>